<svg width="17" height="15" viewBox="0 0 17 15" fill="none" xmlns="http://www.w3.org/2000/svg">
<path d="M4.16699 8.66699C3.81337 8.66699 3.47368 8.80757 3.22363 9.05762C2.97379 9.30763 2.83301 9.64653 2.83301 10C2.83301 10.3535 2.97379 10.6924 3.22363 10.9424C3.47368 11.1924 3.81337 11.333 4.16699 11.333H5C5.35362 11.333 5.69233 11.1924 5.94238 10.9424C6.19243 10.6923 6.33301 10.3536 6.33301 10C6.33301 9.64638 6.19243 9.30767 5.94238 9.05762C5.69234 8.80757 5.35362 8.66699 5 8.66699H4.16699ZM11.667 8.66699C11.3134 8.66699 10.9737 8.80757 10.7236 9.05762C10.4738 9.30763 10.333 9.64653 10.333 10C10.333 10.3535 10.4738 10.6924 10.7236 10.9424C10.9737 11.1924 11.3134 11.333 11.667 11.333H12.5C12.8536 11.333 13.1923 11.1924 13.4424 10.9424C13.6924 10.6923 13.833 10.3536 13.833 10C13.833 9.64638 13.6924 9.30767 13.4424 9.05762C13.1923 8.80757 12.8536 8.66699 12.5 8.66699H11.667ZM3.33301 1.16699C2.9795 1.16708 2.6406 1.30765 2.39062 1.55762C2.14068 1.80765 2 2.14645 2 2.5V7.16699H14.667V2.5C14.667 2.14653 14.5262 1.80764 14.2764 1.55762C14.0263 1.30757 13.6866 1.16699 13.333 1.16699H11.873L11.7344 1.44336L10.2979 4.31543L10.2939 4.32227L10.291 4.3291C10.2723 4.36961 10.2459 4.40651 10.2129 4.43652C10.1799 4.46655 10.1408 4.48914 10.0986 4.50391C10.0566 4.51863 10.0122 4.52523 9.96777 4.52246C9.92341 4.51965 9.87963 4.50809 9.83984 4.48828C9.80001 4.46836 9.7643 4.44009 9.73535 4.40625C9.70636 4.3723 9.68436 4.3326 9.6709 4.29004C9.65746 4.2475 9.65206 4.20262 9.65625 4.1582C9.66046 4.11381 9.67414 4.0705 9.69531 4.03125L9.69922 4.02441L9.70215 4.01758L10.7656 1.89062L11.127 1.16699H7.70605L7.56738 1.44336L6.13477 4.30664C6.09335 4.38031 6.02603 4.43639 5.94531 4.46191C5.86277 4.48797 5.77273 4.48012 5.69531 4.44141C5.61809 4.40263 5.55887 4.33547 5.53027 4.25391C5.50876 4.19252 5.50623 4.12675 5.52148 4.06445L5.54199 4.00391L6.59863 1.89062L6.96094 1.16699H3.33301ZM1.33301 5.33301H0.833008C0.74472 5.33292 0.660091 5.29779 0.597656 5.23535C0.535246 5.17285 0.5 5.08833 0.5 5V3.33301C0.500086 3.24472 0.535221 3.16009 0.597656 3.09766C0.660092 3.03522 0.74472 3.00009 0.833008 3H1.33301V2.5C1.33301 1.96964 1.54397 1.46099 1.91895 1.08594C2.29394 0.710941 2.80269 0.500086 3.33301 0.5H13.333C13.8634 0.5 14.372 0.710967 14.7471 1.08594C15.1221 1.46101 15.333 1.96957 15.333 2.5V3H15.833C15.9214 3 16.0068 3.03514 16.0693 3.09766C16.1317 3.16008 16.1669 3.2448 16.167 3.33301V5C16.167 5.08825 16.1316 5.17287 16.0693 5.23535C16.0068 5.29786 15.9214 5.33301 15.833 5.33301H15.333V11.667C15.3329 11.8717 15.2791 12.0727 15.1768 12.25C15.0744 12.4273 14.9273 12.5744 14.75 12.6768L14.5 12.8213V13.75C14.5 13.9489 14.4209 14.1396 14.2803 14.2803C14.1396 14.4209 13.9489 14.5 13.75 14.5C13.5511 14.5 13.3604 14.4209 13.2197 14.2803C13.0791 14.1396 13 13.9489 13 13.75V12.833H3.66699V13.75C3.66699 13.9488 3.58782 14.1396 3.44727 14.2803C3.30669 14.4208 3.11579 14.4999 2.91699 14.5C2.71816 14.5 2.52736 14.4208 2.38672 14.2803C2.24607 14.1396 2.16699 13.9489 2.16699 13.75V12.8213L1.91699 12.6768C1.73964 12.5744 1.59165 12.4274 1.48926 12.25C1.38697 12.0728 1.33307 11.8716 1.33301 11.667V5.33301Z" fill="#0E0E12" stroke="#0E0E12"/>
</svg>
