<svg width="48" height="48" viewBox="0 0 48 48" fill="none" xmlns="http://www.w3.org/2000/svg">
<path d="M0 24C0 10.7452 10.7452 0 24 0C37.2548 0 48 10.7452 48 24C48 37.2548 37.2548 48 24 48C10.7452 48 0 37.2548 0 24Z" fill="#D3F3FF"/>
<path fill-rule="evenodd" clip-rule="evenodd" d="M22.859 13.5H31C31.9283 13.5 32.8185 13.8687 33.4749 14.5251C34.1313 15.1815 34.5 16.0717 34.5 17C34.8095 17 35.1062 17.1229 35.325 17.3417C35.5438 17.5605 35.6667 17.8572 35.6667 18.1667V20.5C35.6667 20.8094 35.5438 21.1062 35.325 21.325C35.1062 21.5437 34.8095 21.6667 34.5 21.6667V29.8333C34.5 30.2429 34.3922 30.6453 34.1874 31C33.9826 31.3547 33.6881 31.6492 33.3334 31.854V32.75C33.3334 33.2141 33.149 33.6592 32.8208 33.9874C32.4926 34.3156 32.0475 34.5 31.5834 34.5C31.1192 34.5 30.6741 34.3156 30.3459 33.9874C30.0177 33.6592 29.8334 33.2141 29.8334 32.75V32.1667H18.1667V32.75C18.1667 33.2141 17.9823 33.6592 17.6541 33.9874C17.326 34.3156 16.8808 34.5 16.4167 34.5C15.9526 34.5 15.5075 34.3156 15.1793 33.9874C14.8511 33.6592 14.6667 33.2141 14.6667 32.75V31.854C14.312 31.6492 14.0175 31.3547 13.8127 31C13.6079 30.6453 13.5001 30.2429 13.5 29.8333V21.6667C13.1906 21.6667 12.8939 21.5437 12.6751 21.325C12.4563 21.1062 12.3334 20.8094 12.3334 20.5V18.1667C12.3334 17.8572 12.4563 17.5605 12.6751 17.3417C12.8939 17.1229 13.1906 17 13.5 17C13.5 16.0717 13.8688 15.1815 14.5252 14.5251C15.1815 13.8687 16.0718 13.5 17 13.5H22.859ZM23.5544 15.8333H26.779L25.2904 18.8118C25.2162 18.9494 25.1704 19.1004 25.1557 19.2559C25.1411 19.4115 25.1578 19.5684 25.2049 19.7174C25.252 19.8663 25.3286 20.0043 25.43 20.1231C25.5315 20.242 25.6558 20.3392 25.7955 20.4091C25.9352 20.479 26.0876 20.52 26.2435 20.5299C26.3995 20.5398 26.5558 20.5182 26.7032 20.4665C26.8507 20.4149 26.9862 20.3341 27.1019 20.229C27.2175 20.1239 27.3109 19.9967 27.3764 19.8548L29.3877 15.8333H31C31.3095 15.8333 31.6062 15.9562 31.825 16.175C32.0438 16.3938 32.1667 16.6906 32.1667 17V22.8333H15.8334V17C15.8334 16.6906 15.9563 16.3938 16.1751 16.175C16.3939 15.9562 16.6906 15.8333 17 15.8333H20.9457L19.457 18.8118C19.3299 19.0871 19.3149 19.401 19.4152 19.6871C19.5155 19.9732 19.7232 20.209 19.9944 20.3446C20.2656 20.4802 20.5789 20.5049 20.8679 20.4135C21.157 20.322 21.3991 20.1217 21.543 19.8548L23.5544 15.8333ZM17 27.5C17 27.1906 17.123 26.8938 17.3417 26.675C17.5605 26.4562 17.8573 26.3333 18.1667 26.3333H19.3334C19.6428 26.3333 19.9395 26.4562 20.1583 26.675C20.3771 26.8938 20.5 27.1906 20.5 27.5C20.5 27.8094 20.3771 28.1062 20.1583 28.325C19.9395 28.5437 19.6428 28.6667 19.3334 28.6667H18.1667C17.8573 28.6667 17.5605 28.5437 17.3417 28.325C17.123 28.1062 17 27.8094 17 27.5ZM27.5 27.5C27.5 27.1906 27.623 26.8938 27.8417 26.675C28.0605 26.4562 28.3573 26.3333 28.6667 26.3333H29.8334C30.1428 26.3333 30.4395 26.4562 30.6583 26.675C30.8771 26.8938 31 27.1906 31 27.5C31 27.8094 30.8771 28.1062 30.6583 28.325C30.4395 28.5437 30.1428 28.6667 29.8334 28.6667H28.6667C28.3573 28.6667 28.0605 28.5437 27.8417 28.325C27.623 28.1062 27.5 27.8094 27.5 27.5Z" fill="#19C0FF"/>
</svg>
