<svg width="15" height="15" viewBox="0 0 15 15" fill="none" xmlns="http://www.w3.org/2000/svg">
<path d="M10.8333 0C11.0374 2.69255e-05 11.2344 0.0749635 11.387 0.210596C11.5395 0.346229 11.637 0.533124 11.6608 0.735833L11.6667 0.833333V1.66667H13.3333C13.7538 1.66653 14.1588 1.82534 14.4671 2.11125C14.7754 2.39716 14.9643 2.78904 14.9958 3.20833L15 3.33333V13.3333C15.0001 13.7538 14.8413 14.1588 14.5554 14.4671C14.2695 14.7754 13.8776 14.9643 13.4583 14.9958L13.3333 15H1.66667C1.24619 15.0001 0.841195 14.8413 0.532877 14.5554C0.224559 14.2695 0.0357029 13.8776 0.00416685 13.4583L8.35567e-08 13.3333V3.33333C-0.000132983 2.91285 0.158672 2.50786 0.444581 2.19954C0.73049 1.89123 1.12237 1.70237 1.54167 1.67083L1.66667 1.66667H3.33333V0.833333C3.33357 0.620934 3.4149 0.41664 3.56071 0.262193C3.70651 0.107746 3.90579 0.0148042 4.11783 0.00235657C4.32986 -0.010091 4.53865 0.0588955 4.70153 0.195221C4.8644 0.331546 4.96908 0.52492 4.99417 0.735833L5 0.833333V1.66667H10V0.833333C10 0.61232 10.0878 0.400358 10.2441 0.244078C10.4004 0.0877973 10.6123 0 10.8333 0ZM13.3333 7.5H1.66667V13.3333H13.3333V7.5ZM13.3333 3.33333H1.66667V5.83333H13.3333V3.33333Z" fill="#0E0E12"/>
</svg>
