<svg width="48" height="48" viewBox="0 0 48 48" fill="none" xmlns="http://www.w3.org/2000/svg">
<path d="M0 24C0 10.7452 10.7452 0 24 0C37.2548 0 48 10.7452 48 24C48 37.2548 37.2548 48 24 48C10.7452 48 0 37.2548 0 24Z" fill="#E8FBCC"/>
<path fill-rule="evenodd" clip-rule="evenodd" d="M29.8333 13.5C30.4522 13.5 31.0457 13.7458 31.4832 14.1834C31.9208 14.621 32.1667 15.2145 32.1667 15.8333V17H33.3333C33.6428 17 33.9395 17.1229 34.1583 17.3417C34.3771 17.5605 34.5 17.8572 34.5 18.1667C34.5 18.4761 34.3771 18.7728 34.1583 18.9916C33.9395 19.2104 33.6428 19.3333 33.3333 19.3333V32.1667C33.6428 32.1667 33.9395 32.2896 34.1583 32.5084C34.3771 32.7272 34.5 33.0239 34.5 33.3333C34.5 33.6428 34.3771 33.9395 34.1583 34.1583C33.9395 34.3771 33.6428 34.5 33.3333 34.5H25.75V29.25C25.75 28.7859 25.5656 28.3408 25.2374 28.0126C24.9092 27.6844 24.4641 27.5 24 27.5C23.5359 27.5 23.0908 27.6844 22.7626 28.0126C22.4344 28.3408 22.25 28.7859 22.25 29.25V34.5H14.6667C14.3572 34.5 14.0605 34.3771 13.8417 34.1583C13.6229 33.9395 13.5 33.6428 13.5 33.3333C13.5 33.0239 13.6229 32.7272 13.8417 32.5084C14.0605 32.2896 14.3572 32.1667 14.6667 32.1667V19.3333C14.3572 19.3333 14.0605 19.2104 13.8417 18.9916C13.6229 18.7728 13.5 18.4761 13.5 18.1667C13.5 17.8572 13.6229 17.5605 13.8417 17.3417C14.0605 17.1229 14.3572 17 14.6667 17H15.8333V15.8333C15.8333 15.2145 16.0792 14.621 16.5168 14.1834C16.9543 13.7458 17.5478 13.5 18.1667 13.5H29.8333ZM19.3333 25.1667C19.0239 25.1667 18.7272 25.2896 18.5084 25.5084C18.2896 25.7272 18.1667 26.0239 18.1667 26.3333V27.5C18.1667 27.8094 18.2896 28.1062 18.5084 28.325C18.7272 28.5437 19.0239 28.6667 19.3333 28.6667C19.6428 28.6667 19.9395 28.5437 20.1583 28.325C20.3771 28.1062 20.5 27.8094 20.5 27.5V26.3333C20.5 26.0239 20.3771 25.7272 20.1583 25.5084C19.9395 25.2896 19.6428 25.1667 19.3333 25.1667ZM28.6667 25.1667C28.3809 25.1667 28.1051 25.2716 27.8916 25.4615C27.678 25.6514 27.5416 25.913 27.5082 26.1968L27.5 26.3333V27.5C27.5003 27.7974 27.6142 28.0834 27.8183 28.2996C28.0225 28.5158 28.3014 28.6459 28.5983 28.6634C28.8951 28.6808 29.1874 28.5842 29.4155 28.3934C29.6435 28.2025 29.79 27.9318 29.8252 27.6365L29.8333 27.5V26.3333C29.8333 26.0239 29.7104 25.7272 29.4916 25.5084C29.2728 25.2896 28.9761 25.1667 28.6667 25.1667ZM19.3333 20.5C19.0476 20.5 18.7718 20.6049 18.5582 20.7948C18.3447 20.9847 18.2083 21.2464 18.1748 21.5302L18.1667 21.6667V22.8333C18.167 23.1307 18.2809 23.4167 18.485 23.6329C18.6891 23.8492 18.9681 23.9793 19.265 23.9967C19.5618 24.0141 19.8541 23.9175 20.0821 23.7267C20.3102 23.5358 20.4567 23.2651 20.4918 22.9698L20.5 22.8333V21.6667C20.5 21.3572 20.3771 21.0605 20.1583 20.8417C19.9395 20.6229 19.6428 20.5 19.3333 20.5ZM24 20.5C23.7142 20.5 23.4384 20.6049 23.2249 20.7948C23.0114 20.9847 22.8749 21.2464 22.8415 21.5302L22.8333 21.6667V22.8333C22.8337 23.1307 22.9475 23.4167 23.1517 23.6329C23.3558 23.8492 23.6348 23.9793 23.9316 23.9967C24.2285 24.0141 24.5208 23.9175 24.7488 23.7267C24.9768 23.5358 25.1234 23.2651 25.1585 22.9698L25.1667 22.8333V21.6667C25.1667 21.3572 25.0437 21.0605 24.825 20.8417C24.6062 20.6229 24.3094 20.5 24 20.5ZM28.6667 20.5C28.3572 20.5 28.0605 20.6229 27.8417 20.8417C27.6229 21.0605 27.5 21.3572 27.5 21.6667V22.8333C27.5 23.1428 27.6229 23.4395 27.8417 23.6583C28.0605 23.8771 28.3572 24 28.6667 24C28.9761 24 29.2728 23.8771 29.4916 23.6583C29.7104 23.4395 29.8333 23.1428 29.8333 22.8333V21.6667C29.8333 21.3572 29.7104 21.0605 29.4916 20.8417C29.2728 20.6229 28.9761 20.5 28.6667 20.5ZM29.8333 15.8333H18.1667V17H29.8333V15.8333Z" fill="#447A11"/>
</svg>
