<svg width="20" height="20" viewBox="0 0 20 20" fill="none" xmlns="http://www.w3.org/2000/svg">
<path d="M7.98779 12.9997C8.25737 12.9997 8.51871 13.0936 8.72705 13.2643L8.82861 13.3571L9.646 14.1754L9.99951 14.529L11.187 13.3415C11.3778 13.1508 11.6288 13.032 11.897 13.0055L12.0347 12.9997H15.3647C15.7903 12.9996 16.2052 13.1356 16.5483 13.3874C16.8487 13.6077 17.0804 13.9072 17.2192 14.2506L17.2729 14.4001L17.3101 14.5299L17.6938 16.068C17.7201 16.1732 17.7238 16.2828 17.7036 16.3893C17.6835 16.4958 17.6405 16.5969 17.5776 16.6852C17.5147 16.7735 17.4325 16.8472 17.3384 16.901C17.2444 16.9547 17.1396 16.9863 17.0317 16.9958L16.9653 16.9997H3.03369C2.92528 16.9996 2.81768 16.9767 2.71924 16.9313C2.62088 16.8859 2.53373 16.8194 2.46338 16.737C2.39309 16.6546 2.34143 16.558 2.31201 16.4538C2.2836 16.3529 2.27564 16.2468 2.29053 16.1432L2.30615 16.068L2.69385 14.5143C2.7971 14.1015 3.02953 13.7324 3.35693 13.4606C3.6844 13.1889 4.09038 13.029 4.51514 13.0036L4.51416 13.0026L4.64893 12.9997H7.98779ZM9.99951 2.16666C10.5842 2.16666 11.2639 2.31067 11.8491 2.47427C12.9392 2.77829 13.6103 3.77641 13.6626 4.86197L13.6665 5.00943V8.3356C13.6665 9.47194 12.9846 10.5429 11.8491 10.859C11.2629 11.0221 10.584 11.1667 9.99951 11.1667C9.41488 11.1666 8.73596 11.0226 8.15088 10.859C7.06433 10.556 6.39361 9.56352 6.3374 8.48209L6.3335 8.32388V4.99673C6.3335 3.86115 7.0155 2.7894 8.15088 2.4733L8.1499 2.47232C8.73646 2.30999 9.41508 2.16673 9.99951 2.16666Z" fill="#0E0E12" stroke="#0E0E12"/>
</svg>
