<svg width="126" height="40" viewBox="0 0 126 40" fill="none" xmlns="http://www.w3.org/2000/svg">
<mask id="mask0_1_519" style="mask-type:alpha" maskUnits="userSpaceOnUse" x="0" y="0" width="40" height="40">
<rect width="40" height="40" fill="#D9D9D9"/>
</mask>
<g mask="url(#mask0_1_519)">
<path d="M17.0826 35V25.0833L8.49931 30.0417L5.58264 25L14.166 20L5.58264 15.0417L8.49931 10L17.0826 14.9583V5H22.916V14.9583L31.4993 10L34.416 15.0417L25.8326 20L34.416 25L31.4993 30.0417L22.916 25.0833V35H17.0826Z" fill="#19C0FF"/>
</g>
<path d="M55.0879 29V12.256H48.3119V9.26H65.4479V12.256H58.6719V29H55.0879ZM65.195 29V15.308H68.611V18.612H68.331C68.5923 17.492 69.1057 16.6427 69.871 16.064C70.6363 15.4667 71.6537 15.1213 72.923 15.028L73.987 14.944L74.211 17.912L72.195 18.108C71.0563 18.22 70.1977 18.5747 69.619 19.172C69.0403 19.7507 68.751 20.572 68.751 21.636V29H65.195ZM75.9358 12.368V8.952H79.8558V12.368H75.9358ZM76.1598 29V15.308H79.6598V29H76.1598ZM83.2966 34.04V15.308H86.7126V18.192H86.4326C86.7126 17.24 87.2819 16.4747 88.1406 15.896C89.0179 15.3173 90.0352 15.028 91.1926 15.028C92.3872 15.028 93.4326 15.3173 94.3286 15.896C95.2432 16.4747 95.9526 17.296 96.4566 18.36C96.9606 19.4053 97.2126 20.6653 97.2126 22.14C97.2126 23.596 96.9606 24.8653 96.4566 25.948C95.9526 27.012 95.2526 27.8333 94.3566 28.412C93.4606 28.9907 92.4059 29.28 91.1926 29.28C90.0539 29.28 89.0552 29 88.1966 28.44C87.3379 27.8613 86.7592 27.1147 86.4606 26.2H86.7966V34.04H83.2966ZM90.2126 26.62C91.2579 26.62 92.0979 26.2467 92.7326 25.5C93.3672 24.7347 93.6846 23.6147 93.6846 22.14C93.6846 20.6467 93.3672 19.536 92.7326 18.808C92.0979 18.0613 91.2579 17.688 90.2126 17.688C89.1672 17.688 88.3272 18.0613 87.6926 18.808C87.0579 19.536 86.7406 20.6467 86.7406 22.14C86.7406 23.6147 87.0579 24.7347 87.6926 25.5C88.3272 26.2467 89.1672 26.62 90.2126 26.62ZM99.4189 29V26.732L107.147 17.1V17.94H99.4189V15.308H110.283V17.576L102.471 27.292V26.368H110.591V29H99.4189ZM114.142 34.04L116.998 27.74V29.196L110.978 15.308H114.702L118.958 25.92H118.118L122.458 15.308H125.986L117.754 34.04H114.142Z" fill="#19C0FF"/>
</svg>
