<svg width="24" height="24" viewBox="0 0 24 24" fill="none" xmlns="http://www.w3.org/2000/svg">
<path d="M8.20712 11.757C8.30009 11.8499 8.37385 11.9602 8.42418 12.0816C8.4745 12.203 8.50041 12.3331 8.50041 12.4645C8.50041 12.5959 8.4745 12.726 8.42418 12.8474C8.37385 12.9688 8.30009 13.0791 8.20712 13.172L6.38012 15H16.0001C16.2653 15 16.5197 15.1054 16.7072 15.2929C16.8948 15.4804 17.0001 15.7348 17.0001 16C17.0001 16.2652 16.8948 16.5196 16.7072 16.7071C16.5197 16.8946 16.2653 17 16.0001 17H6.38012L8.20812 18.828C8.30103 18.9208 8.37474 19.0311 8.42505 19.1524C8.47536 19.2737 8.50127 19.4038 8.50132 19.5352C8.50137 19.6665 8.47554 19.7966 8.42532 19.9179C8.3751 20.0393 8.30146 20.1496 8.20862 20.2425C8.11577 20.3354 8.00554 20.4091 7.88421 20.4594C7.76287 20.5097 7.63282 20.5357 7.50147 20.5357C7.37012 20.5358 7.24005 20.5099 7.11868 20.4597C6.99732 20.4095 6.88703 20.3358 6.79412 20.243L3.25812 16.707C3.07065 16.5195 2.96533 16.2652 2.96533 16C2.96533 15.7348 3.07065 15.4805 3.25812 15.293L6.79412 11.757C6.98165 11.5695 7.23595 11.4642 7.50112 11.4642C7.76628 11.4642 8.02059 11.5695 8.20812 11.757H8.20712ZM15.7931 3.757C15.9653 3.58483 16.1944 3.4814 16.4374 3.46611C16.6805 3.45083 16.9207 3.52475 17.1131 3.674L17.2071 3.757L20.7431 7.293C20.9153 7.4652 21.0187 7.6943 21.034 7.93732C21.0493 8.18035 20.9754 8.4206 20.8261 8.613L20.7431 8.707L17.2071 12.242C17.0272 12.4214 16.7857 12.5255 16.5317 12.5332C16.2778 12.541 16.0304 12.4518 15.8398 12.2838C15.6493 12.1157 15.5298 11.8815 15.5057 11.6285C15.4816 11.3756 15.5547 11.123 15.7101 10.922L15.7931 10.828L17.6201 9H8.00012C7.74524 8.99972 7.50009 8.90212 7.31475 8.72716C7.12941 8.55219 7.01788 8.31305 7.00295 8.05861C6.98801 7.80417 7.07079 7.55362 7.23438 7.35817C7.39797 7.16272 7.63002 7.03711 7.88312 7.007L8.00012 7H17.6211L15.7931 5.17C15.6056 4.98248 15.5003 4.72817 15.5003 4.463C15.5003 4.19784 15.6056 3.94453 15.7931 3.757Z" fill="#19C0FF"/>
</svg>
